<mxfile host="app.diagrams.net" modified="2024-07-09T03:40:07.323Z" agent="Mozilla/5.0 (Windows NT 10.0; Win64; x64) AppleWebKit/537.36 (KHTML, like Gecko) Chrome/123.0.0.0 Safari/537.36 Edg/123.0.0.0" version="22.1.21" etag="JfTrnvM8CLj9wIxzot70" type="github">
  <diagram name="第 1 页" id="Tqt45-eFAFJIRc33Cidh">
    <mxGraphModel>
      <root>
        <mxCell id="0" />
        <mxCell id="1" parent="0" />
      </root>
    </mxGraphModel>
  </diagram>
</mxfile>
